<svg xmlns="http://www.w3.org/2000/svg" viewBox="0 0 70 70" width="70" height="70">
  <path fill="#96588a" d="M.132.03h69.736v69.94H.132z" fill-opacity="0"/>
  <path fill="#96588a" d="M61.57 36.89a21.47 21.47 0 01-3.59 11.93l-13.18-36.11c2.65-.7 5.44-1.09 8.33-1.09 3.43 0 6.72.59 9.78 1.67-.07-.1-.14-.2-.22-.29.08.1.16.2.22.29a21.57 21.57 0 01-1.34 23.61M28.55 58.06l-8.85-24.3-1.39-3.82a46.41 46.41 0 00-.21-.62L18 28.94c.11.32.2.64.29.94A22.38 22.38 0 015.14 26.2C7.69 14.19 18.6 5.29 31.65 5.29c9.78 0 18.29 5.07 23.17 12.73-2.51-2.33-6.22-3.52-12.68-3.52-3.83 0-8.09 1.08-8.09 1.08-.17.04-.29.16-.3.33-.02.17.08.33.23.41 0 0 .32.14.66.4.36.27.75.74.75 1.37 0 .62-.2 1.58-.32 2.62L31.9 33.43l-3.34 10.01-8.85 24.3M35 64.71c-3.08 0-6.04-.43-8.86-1.24l9.4-27.32 9.63 26.41c.07.15.15.29.24.43-3.16 1.11-6.56 1.72-10.1 1.72m-24.96-33.3a22.7 22.7 0 013.72-12.3l.2.11s2.62 8.15 7.2 24.11c7.06 24.55 8.53 29.05 8.53 29.05a57.64 57.64 0 01-.15-.06A31.28 31.28 0 01.1 31.8a31.28 31.28 0 019.94-.41M35 0C15.67 0 0 15.67 0 35s15.67 35 35 35 35-15.67 35-35S54.33 0 35 0"/>
</svg>
